<?xml version="1.0" standalone="no"?>
<!DOCTYPE svg PUBLIC "-//W3C//DTD SVG 20010904//EN"
 "http://www.w3.org/TR/2001/REC-SVG-20010904/DTD/svg10.dtd">
<svg version="1.0" xmlns="http://www.w3.org/2000/svg"
 width="2028.000000pt" height="747.000000pt" viewBox="0 0 2028.000000 747.000000"
 preserveAspectRatio="xMidYMid meet">

<g transform="translate(0.000000,747.000000) scale(0.100000,-0.100000)"
fill="#000000" stroke="none">
<path d="M9671 7459 c-92 -18 -177 -92 -206 -179 -10 -30 -17 -112 -21 -246
l-7 -202 -76 -15 c-42 -8 -1898 -358 -4126 -778 -2227 -419 -4053 -765 -4057
-768 -3 -3 4 -118 17 -256 14 -137 25 -258 25 -268 0 -17 -27 -18 -605 -11
-333 4 -605 5 -605 2 0 -3 111 -95 248 -204 315 -252 359 -291 450 -394 235
-268 412 -654 547 -1189 156 -624 209 -1087 210 -1841 0 -299 -5 -456 -19
-647 -22 -286 -20 -307 41 -374 20 -22 55 -50 77 -62 l41 -22 8473 -3 8472 -2
0 23 c0 13 -7 70 -14 128 -150 1075 -81 2260 168 2906 137 354 382 743 611
967 82 80 184 151 719 497 l240 154 -742 3 -742 2 0 28 c0 15 11 137 25 271
14 135 24 246 22 247 -1 1 -1784 358 -3962 794 -2178 435 -3968 793 -3977 796
-16 5 -18 24 -18 209 0 181 -2 210 -20 257 -35 91 -99 148 -195 173 -49 12
-133 15 -505 14 -245 -1 -465 -5 -489 -10z m801 -621 c3 -196 5 -216 25 -253
31 -59 101 -120 159 -138 27 -9 1541 -313 3364 -677 1823 -364 3335 -667 3360
-675 59 -18 47 -18 -7360 0 -3303 8 -6324 15 -6715 15 -463 1 -702 5 -686 11
13 5 1599 306 3525 669 2521 475 3515 666 3550 682 26 12 65 42 86 66 54 61
70 115 70 241 0 58 3 143 7 189 l6 82 303 0 303 0 3 -212z m-357 -2544 c4862
-15 8842 -28 8844 -30 2 -1 -36 -49 -83 -106 -227 -270 -470 -698 -584 -1030
-215 -623 -302 -1646 -218 -2563 7 -77 11 -143 9 -148 -2 -4 -3654 -7 -8115
-7 l-8111 0 7 88 c14 196 18 851 7 1047 -38 657 -85 987 -212 1490 -125 493
-278 868 -471 1157 -43 64 -78 119 -78 122 0 8 -962 10 9005 -20z"/>
</g>
</svg>
