<?xml version="1.0" standalone="no"?>
<!DOCTYPE svg PUBLIC "-//W3C//DTD SVG 20010904//EN"
 "http://www.w3.org/TR/2001/REC-SVG-20010904/DTD/svg10.dtd">
<svg version="1.0" xmlns="http://www.w3.org/2000/svg"
 width="1018.000000pt" height="1081.000000pt" viewBox="0 0 1018.000000 1081.000000"
 preserveAspectRatio="xMidYMid meet">

<g transform="translate(0.000000,1081.000000) scale(0.100000,-0.100000)"
fill="#000000" stroke="none">
<path d="M285 10782 c-152 -52 -246 -160 -275 -312 -15 -78 -14 -10071 1
-10142 34 -164 165 -290 330 -318 46 -8 1427 -10 4789 -8 l4725 3 58 23 c116
47 203 139 237 252 20 65 20 98 18 5145 l-3 5080 -27 58 c-38 80 -117 160
-197 200 l-66 32 -4770 2 c-4506 2 -4773 1 -4820 -15z m9475 -5377 l0 -4985
-4670 0 -4670 0 0 4985 0 4985 4670 0 4670 0 0 -4985z"/>
<path d="M1572 9845 c-201 -44 -346 -240 -329 -444 11 -134 76 -245 186 -318
92 -63 147 -76 299 -71 118 3 132 5 192 34 167 80 258 233 248 413 -8 138 -98
279 -218 345 -96 52 -249 69 -378 41z m178 -415 c0 -5 -20 -10 -45 -10 -25 0
-45 5 -45 10 0 6 20 10 45 10 25 0 45 -4 45 -10z"/>
<path d="M3763 9845 c-84 -18 -153 -57 -214 -122 -204 -215 -136 -553 137
-680 53 -25 73 -28 186 -31 152 -5 207 8 299 71 264 177 246 557 -33 720 -88
52 -246 70 -375 42z m177 -415 c0 -5 -20 -10 -45 -10 -25 0 -45 5 -45 10 0 6
20 10 45 10 25 0 45 -4 45 -10z"/>
<path d="M6491 9849 c-318 -62 -455 -461 -240 -694 99 -107 192 -145 357 -145
169 0 255 33 351 135 231 244 97 641 -238 705 -63 12 -167 11 -230 -1z m169
-419 c0 -5 -22 -10 -50 -10 -27 0 -50 5 -50 10 0 6 23 10 50 10 28 0 50 -4 50
-10z"/>
<path d="M8453 9845 c-84 -18 -153 -57 -214 -122 -204 -215 -136 -553 137
-680 53 -25 73 -28 186 -31 152 -5 207 8 299 71 264 177 246 557 -33 720 -88
52 -246 70 -375 42z m177 -415 c0 -5 -20 -10 -45 -10 -25 0 -45 5 -45 10 0 6
20 10 45 10 25 0 45 -4 45 -10z"/>
<path d="M1397 7949 c-105 -25 -204 -106 -254 -207 l-28 -57 0 -3105 0 -3105
30 -58 c38 -76 126 -158 202 -189 l58 -23 3625 -3 c2519 -2 3646 1 3694 8 131
20 239 100 294 218 l27 57 5 2560 c3 1408 3 2801 0 3095 l-5 535 -27 57 c-51
109 -146 188 -257 214 -46 11 -700 14 -3691 13 -2069 -1 -3651 -5 -3673 -10z
m7243 -793 l0 -393 -422 -479 c-231 -263 -424 -480 -427 -482 -4 -1 -209 256
-456 572 -248 317 -452 575 -455 576 -4 0 -210 -238 -459 -530 -249 -291 -455
-532 -459 -534 -4 -2 -221 247 -481 555 -260 308 -477 559 -481 557 -5 -2
-194 -262 -420 -578 -226 -316 -415 -576 -420 -578 -4 -2 -187 255 -406 570
-219 315 -405 583 -414 595 -17 22 -24 14 -511 -588 -271 -335 -497 -608 -501
-607 -5 2 -188 230 -408 507 l-400 503 0 364 0 364 3560 0 3560 0 0 -394z
m-4911 -1426 l424 -610 51 71 c458 642 813 1133 822 1136 7 2 218 -240 470
-537 l458 -541 32 33 c17 18 219 254 449 523 230 270 423 491 429 492 6 1 211
-254 456 -567 245 -314 448 -569 452 -567 4 1 181 200 393 442 213 242 407
460 431 485 l44 45 0 -2263 0 -2262 -3560 0 -3560 0 0 2271 c0 1449 3 2268 10
2264 5 -3 181 -223 391 -488 210 -265 388 -488 394 -495 10 -11 107 104 494
582 266 328 486 596 489 596 4 0 198 -275 431 -610z"/>
</g>
</svg>
