<?xml version="1.0" standalone="no"?>
<!DOCTYPE svg PUBLIC "-//W3C//DTD SVG 20010904//EN"
 "http://www.w3.org/TR/2001/REC-SVG-20010904/DTD/svg10.dtd">
<svg version="1.0" xmlns="http://www.w3.org/2000/svg"
 width="1491.000000pt" height="1492.000000pt" viewBox="0 0 1491.000000 1492.000000"
 preserveAspectRatio="xMidYMid meet">

<g transform="translate(0.000000,1492.000000) scale(0.100000,-0.100000)"
fill="#000000" stroke="none">
<path d="M4420 14899 c-1296 -104 -2458 -699 -3296 -1689 -248 -293 -455 -609
-629 -965 -269 -547 -417 -1081 -477 -1720 -10 -112 -13 -724 -13 -3065 0
-3098 -1 -3005 46 -3350 200 -1448 1078 -2741 2357 -3474 491 -281 1039 -476
1592 -566 358 -58 118 -53 3355 -57 3021 -4 3106 -3 3390 33 1893 242 3471
1605 3985 3443 95 338 150 671 170 1031 8 137 10 1045 8 3070 -4 3093 -1 2915
-53 3260 -114 771 -431 1526 -903 2155 -323 431 -756 837 -1203 1128 -625 407
-1285 646 -2069 749 l-165 22 -2995 2 c-1647 1 -3042 -2 -3100 -7z m6000 -409
c598 -42 1129 -186 1658 -450 422 -211 758 -450 1096 -780 366 -358 629 -714
850 -1150 281 -553 432 -1127 466 -1765 13 -256 13 -5514 0 -5770 -34 -642
-181 -1199 -464 -1760 -343 -678 -840 -1238 -1471 -1660 -592 -395 -1186 -613
-1945 -712 -126 -16 -333 -18 -3050 -21 -2969 -3 -3068 -2 -3345 34 -799 104
-1536 420 -2177 933 -157 125 -422 381 -555 535 -576 669 -915 1429 -1035
2321 l-23 170 0 3045 0 3045 23 165 c30 223 55 355 104 545 265 1047 918 1963
1820 2558 210 138 306 193 519 296 452 219 929 354 1429 405 85 9 182 17 215
19 173 9 5756 6 5885 -3z"/>
<path d="M2385 12857 c-21 -12 -53 -42 -70 -65 -26 -38 -30 -52 -30 -112 0
-60 4 -74 30 -112 17 -23 51 -54 75 -68 l45 -25 5095 0 5095 0 45 25 c24 14
58 45 75 68 26 38 30 52 30 112 0 60 -4 74 -30 112 -17 23 -49 53 -70 65 l-40
23 -5105 0 -5105 0 -40 -23z"/>
<path d="M1390 11148 c-167 -85 -132 -338 51 -378 40 -8 1568 -10 6049 -8
5565 3 5997 4 6025 20 155 86 151 306 -7 373 -34 13 -646 15 -6056 15 l-6018
0 -44 -22z"/>
<path d="M1392 9439 c-68 -34 -112 -108 -112 -188 1 -79 70 -169 147 -190 51
-14 12003 -15 12052 -1 58 16 100 52 127 108 51 101 14 216 -85 269 l-44 23
-6021 0 -6021 0 -43 -21z"/>
<path d="M1389 7722 c-43 -22 -59 -38 -81 -81 -37 -70 -37 -122 0 -192 22 -43
38 -59 81 -81 l53 -28 6012 0 6012 0 53 26 c78 39 106 87 106 180 0 64 -3 77
-30 115 -16 23 -48 52 -70 63 l-40 21 -6021 3 -6022 2 -53 -28z"/>
<path d="M1416 6025 c-154 -55 -181 -265 -47 -360 l43 -30 6032 -3 6033 -2 44
23 c63 34 102 93 107 164 3 49 -1 66 -25 113 -23 44 -39 59 -82 82 l-53 28
-6007 0 c-5083 -1 -6012 -3 -6045 -15z"/>
<path d="M1416 4315 c-164 -58 -181 -290 -27 -372 l44 -23 6021 0 6022 0 44
23 c126 63 146 235 40 331 -21 19 -56 39 -77 45 -27 8 -1836 11 -6033 11
-5074 -1 -6001 -3 -6034 -15z"/>
<path d="M2445 2611 c-79 -20 -137 -73 -156 -144 -24 -90 16 -189 96 -234 l40
-23 5105 0 5105 0 40 23 c141 80 136 282 -9 360 l-41 22 -5075 2 c-2791 0
-5088 -2 -5105 -6z"/>
</g>
</svg>
