<?xml version="1.0" standalone="no"?>
<!DOCTYPE svg PUBLIC "-//W3C//DTD SVG 20010904//EN"
 "http://www.w3.org/TR/2001/REC-SVG-20010904/DTD/svg10.dtd">
<svg version="1.0" xmlns="http://www.w3.org/2000/svg"
 width="1859.000000pt" height="1130.000000pt" viewBox="0 0 1859.000000 1130.000000"
 preserveAspectRatio="xMidYMid meet">

<g transform="translate(0.000000,1130.000000) scale(0.100000,-0.100000)"
fill="#000000" stroke="none">
<path d="M11550 11274 c-229 -49 -431 -246 -484 -474 -34 -143 -12 -324 56
-453 49 -94 183 -223 279 -270 146 -71 -18 -67 2374 -67 2363 0 2212 -3 2347
58 173 80 304 237 353 427 19 76 19 233 0 310 -45 176 -177 338 -336 415 -157
75 19 70 -2374 69 -1801 0 -2161 -3 -2215 -15z m4412 -427 c78 -46 118 -115
118 -205 0 -90 -75 -187 -163 -211 -31 -9 -587 -11 -2167 -9 l-2125 3 -42 22
c-82 44 -131 136 -121 227 10 89 86 176 170 196 18 5 989 7 2158 7 l2125 -2
47 -28z"/>
<path d="M200 9913 c-69 -25 -151 -113 -174 -187 -22 -69 -19 -117 19 -383
228 -1572 855 -3077 1810 -4348 608 -808 1222 -1398 2061 -1977 437 -302 1023
-630 1510 -845 129 -58 532 -221 606 -246 15 -5 12 -19 -31 -114 -259 -582
-711 -1611 -711 -1619 0 -11 360 -174 371 -168 3 2 180 399 394 882 l388 879
96 -29 c819 -248 1690 -387 2526 -405 896 -19 2009 158 2962 471 107 36 163
50 166 42 3 -6 165 -425 361 -930 196 -506 357 -921 359 -922 2 -2 88 30 192
70 125 49 189 79 188 88 -2 7 -160 420 -353 916 -192 497 -351 910 -352 918
-2 10 50 37 172 88 529 221 1034 483 1505 781 544 344 1105 782 1430 1116
1181 1216 2018 2594 2528 4166 165 507 357 1305 357 1481 0 122 -75 230 -186
272 l-55 20 -9047 -1 c-8233 -1 -9051 -2 -9092 -16z m17945 -415 c-2 -13 -21
-99 -41 -193 -255 -1212 -747 -2394 -1439 -3455 -468 -719 -1157 -1519 -1665
-1934 -1374 -1121 -2957 -1819 -4685 -2065 -438 -63 -740 -86 -1120 -85 -1138
1 -2350 252 -3436 713 -1205 510 -2327 1300 -3100 2183 -1095 1250 -1810 2688
-2124 4273 -41 205 -95 530 -95 568 0 16 567 17 8855 17 l8855 0 -5 -22z"/>
<path d="M7556 8790 c-347 -803 -510 -1122 -824 -1616 -116 -183 -359 -530
-420 -601 l-33 -38 6 60 c29 294 25 580 -11 824 -13 89 -93 516 -111 589 -4
19 -34 -14 -191 -210 -300 -377 -536 -699 -737 -1006 -47 -73 -90 -132 -95
-132 -13 0 -95 259 -135 423 -90 378 -113 660 -98 1212 5 171 9 311 8 311 -1
5 -437 -498 -492 -568 -266 -335 -476 -762 -583 -1183 -73 -287 -100 -505
-100 -811 0 -332 32 -574 115 -859 201 -691 550 -1332 1034 -1895 114 -133
425 -441 554 -549 l89 -75 96 34 c844 293 1483 934 1765 1772 49 145 187 688
237 933 103 507 164 984 191 1515 14 278 6 909 -16 1179 -12 153 -86 925 -98
1016 -1 11 -69 -135 -151 -325z m-139 -1602 c-11 -577 -69 -1109 -183 -1675
-51 -254 -195 -817 -245 -957 -85 -239 -239 -514 -400 -713 -230 -285 -606
-566 -928 -693 l-49 -19 -159 158 c-541 537 -917 1140 -1153 1851 -124 373
-155 578 -147 970 8 358 54 607 173 932 46 125 181 401 193 394 4 -3 11 -34
15 -68 28 -247 127 -625 243 -923 52 -136 302 -664 314 -665 3 0 57 87 119
193 137 232 285 470 393 632 132 198 279 405 288 405 11 0 11 -20 -1 -205 -19
-277 -74 -540 -166 -790 -31 -84 -165 -365 -381 -798 l-333 -667 158 162
c1020 1050 1161 1204 1496 1648 256 338 503 717 696 1065 36 65 50 85 58 85 3
0 2 -145 -1 -322z"/>
</g>
</svg>
