<?xml version="1.0" standalone="no"?>
<!DOCTYPE svg PUBLIC "-//W3C//DTD SVG 20010904//EN"
 "http://www.w3.org/TR/2001/REC-SVG-20010904/DTD/svg10.dtd">
<svg version="1.0" xmlns="http://www.w3.org/2000/svg"
 width="1953.000000pt" height="421.000000pt" viewBox="0 0 1953.000000 421.000000"
 preserveAspectRatio="xMidYMid meet">

<g transform="translate(0.000000,421.000000) scale(0.100000,-0.100000)"
fill="#000000" stroke="none">
<path d="M1075 4200 c-189 -17 -390 -57 -574 -116 -224 -70 -384 -223 -458
-436 -34 -97 -42 -261 -19 -363 43 -185 186 -380 329 -450 96 -46 192 -65 339
-65 204 0 408 54 543 145 l64 42 698 -8 c533 -6 729 -11 828 -24 170 -20 285
-40 398 -70 127 -33 201 -45 1767 -299 1770 -288 2553 -416 2562 -419 4 -1
389 -468 855 -1037 467 -569 864 -1045 882 -1057 19 -13 50 -27 70 -33 24 -6
1434 -10 4177 -10 4646 0 4206 -8 4285 77 59 64 1653 2092 1681 2139 52 88 15
222 -77 279 l-48 30 -5846 5 -5846 5 -750 193 c-2790 719 -4025 1056 -4595
1251 -80 27 -204 70 -275 94 -145 50 -311 90 -467 112 -127 18 -402 26 -523
15z m475 -426 c156 -21 286 -55 502 -132 208 -74 438 -147 748 -237 322 -94
348 -105 190 -84 -265 35 -408 41 -1067 46 -660 5 -673 5 -740 -15 -38 -12
-95 -40 -128 -63 -33 -23 -79 -50 -102 -60 -99 -42 -282 -61 -378 -39 -103 23
-184 203 -143 321 17 52 62 112 105 141 21 15 87 40 147 57 298 85 574 105
866 65z m17348 -1663 c-1 -6 -300 -388 -663 -850 l-660 -840 -4040 0 -4040 0
-685 836 c-377 460 -686 843 -688 850 -3 11 966 13 5388 13 3343 0 5390 -4
5388 -9z"/>
</g>
</svg>
