<?xml version="1.0" standalone="no"?>
<!DOCTYPE svg PUBLIC "-//W3C//DTD SVG 20010904//EN"
 "http://www.w3.org/TR/2001/REC-SVG-20010904/DTD/svg10.dtd">
<svg version="1.0" xmlns="http://www.w3.org/2000/svg"
 width="2014.000000pt" height="544.000000pt" viewBox="0 0 2014.000000 544.000000"
 preserveAspectRatio="xMidYMid meet">

<g transform="translate(0.000000,544.000000) scale(0.100000,-0.100000)"
fill="#000000" stroke="none">
<path d="M20 5426 c0 -2 105 -101 233 -220 240 -223 330 -319 430 -458 189
-265 345 -650 472 -1168 49 -201 129 -610 159 -820 96 -661 121 -1580 64
-2371 -9 -137 -9 -174 2 -215 19 -68 89 -137 161 -158 48 -15 841 -16 8501
-16 8093 0 8448 1 8448 18 0 10 -7 71 -15 137 -24 202 -54 549 -66 780 -13
250 -7 1024 10 1230 75 919 178 1348 452 1895 109 215 195 358 300 496 127
168 203 235 593 528 203 152 367 276 365 277 -12 2 -18473 68 -19226 69 -486
0 -883 -2 -883 -4z m10760 -442 c4474 -14 8143 -29 8152 -33 15 -5 8 -18 -43
-81 -204 -255 -410 -624 -562 -1010 -74 -189 -102 -276 -151 -480 -172 -709
-236 -1801 -161 -2760 8 -102 15 -191 15 -197 0 -10 -1629 -13 -8113 -13
-4463 0 -8116 2 -8118 4 -2 2 -1 44 3 93 15 185 21 1056 9 1289 -36 701 -69
988 -176 1519 -86 429 -157 693 -268 995 -71 192 -199 455 -287 589 -34 52
-65 101 -68 109 -5 13 97 14 814 9 450 -4 4480 -19 8954 -33z"/>
</g>
</svg>
