<?xml version="1.0" standalone="no"?>
<!DOCTYPE svg PUBLIC "-//W3C//DTD SVG 20010904//EN"
 "http://www.w3.org/TR/2001/REC-SVG-20010904/DTD/svg10.dtd">
<svg version="1.0" xmlns="http://www.w3.org/2000/svg"
 width="1785.000000pt" height="1081.000000pt" viewBox="0 0 1785.000000 1081.000000"
 preserveAspectRatio="xMidYMid meet">

<g transform="translate(0.000000,1081.000000) scale(0.100000,-0.100000)"
fill="#000000" stroke="none">
<path d="M7965 10786 c-115 -36 -198 -108 -248 -214 l-32 -67 -5 -2655 -5
-2655 -1438 -3 -1438 -2 -357 91 c-1519 385 -2529 661 -2960 806 -122 41 -264
84 -315 94 -122 26 -363 36 -493 19 -131 -16 -311 -62 -391 -99 -76 -36 -174
-130 -215 -207 -53 -99 -72 -236 -47 -344 31 -137 138 -277 251 -330 157 -73
375 -61 566 32 l83 41 397 -6 c462 -7 494 -10 777 -72 55 -13 1986 -330 2442
-402 l102 -16 510 -622 c281 -343 523 -632 538 -643 61 -42 57 -42 1044 -42
l949 0 2 -1597 3 -1598 27 -57 c56 -121 176 -209 309 -228 86 -13 9392 -13
9478 0 178 25 316 164 342 343 12 89 12 10012 -1 10102 -20 139 -94 241 -218
302 l-76 38 -4770 2 c-3834 1 -4779 -1 -4811 -11z m9465 -5381 l0 -4985 -4670
0 -4670 0 0 1535 0 1535 345 0 345 0 2 -1002 3 -1003 27 -57 c35 -76 95 -138
170 -179 l63 -34 3705 0 3705 0 57 28 c74 36 139 101 175 175 l28 57 0 3105 0
3105 -33 67 c-39 80 -111 148 -192 181 l-55 22 -3685 0 -3685 0 -50 -23 c-115
-53 -183 -126 -216 -233 -18 -58 -19 -115 -19 -1285 l0 -1224 -345 0 -345 0 0
2600 0 2600 4670 0 4670 0 0 -4985z m-1120 -820 l0 -2965 -3560 0 -3560 0 0
935 0 934 848 3 847 3 44 25 c36 20 140 148 559 680 283 360 524 674 535 699
42 96 -3 213 -102 264 l-55 27 -1338 0 -1338 0 0 1180 0 1180 3560 0 3560 0 0
-2965z m-15280 1201 c100 -16 255 -60 265 -76 4 -6 -81 -10 -233 -10 -262 0
-307 -7 -378 -58 -54 -39 -96 -52 -169 -52 -68 0 -81 8 -91 57 -4 22 0 36 19
59 20 24 43 34 114 52 175 44 310 52 473 28z m10380 -1013 c0 -5 -153 -203
-341 -440 l-340 -433 -2409 0 -2409 0 -353 430 c-194 237 -354 435 -356 440
-2 7 1127 10 3102 10 1708 0 3106 -3 3106 -7z"/>
<path d="M9250 9849 c-213 -42 -369 -266 -332 -479 30 -167 137 -293 291 -341
90 -27 259 -27 343 2 111 37 208 123 256 227 24 51 27 69 27 173 0 113 -1 116
-38 191 -59 120 -161 199 -295 227 -61 13 -187 13 -252 0z m175 -414 c0 -5
-21 -11 -47 -13 -45 -3 -58 4 -41 22 11 10 88 3 88 -9z"/>
<path d="M11442 9849 c-111 -22 -232 -110 -285 -207 -131 -240 -13 -535 244
-613 58 -18 89 -20 192 -17 112 3 127 6 189 35 168 79 255 225 246 412 -3 71
-10 99 -36 154 -55 119 -169 208 -300 236 -61 13 -187 13 -250 0z m173 -414
c0 -5 -21 -11 -47 -13 -45 -3 -58 4 -41 22 11 10 88 3 88 -9z"/>
<path d="M14145 9846 c-149 -37 -262 -144 -307 -289 -61 -202 30 -411 221
-505 l75 -37 140 0 c164 0 200 9 288 68 109 73 174 184 185 318 18 211 -135
409 -347 449 -70 13 -193 11 -255 -4z m183 -413 c2 -9 -10 -13 -42 -13 -43 0
-63 10 -49 24 12 11 86 2 91 -11z"/>
<path d="M16130 9849 c-215 -42 -369 -265 -332 -480 20 -119 78 -214 171 -280
87 -62 166 -82 314 -77 112 3 127 6 189 35 168 79 255 225 246 412 -3 71 -10
99 -36 154 -55 119 -169 208 -300 236 -61 13 -187 13 -252 0z m175 -414 c0 -5
-21 -11 -47 -13 -45 -3 -58 4 -41 22 11 10 88 3 88 -9z"/>
</g>
</svg>
