<?xml version="1.0" standalone="no"?>
<!DOCTYPE svg PUBLIC "-//W3C//DTD SVG 20010904//EN"
 "http://www.w3.org/TR/2001/REC-SVG-20010904/DTD/svg10.dtd">
<svg version="1.0" xmlns="http://www.w3.org/2000/svg"
 width="1545.000000pt" height="626.000000pt" viewBox="0 0 1545.000000 626.000000"
 preserveAspectRatio="xMidYMid meet">

<g transform="translate(0.000000,626.000000) scale(0.100000,-0.100000)"
fill="#000000" stroke="none">
<path d="M300 6239 c-72 -14 -165 -65 -209 -115 -117 -133 -109 -325 22 -565
140 -257 330 -452 615 -632 730 -460 2183 -847 4126 -1097 126 -17 230 -31
230 -32 1 -2 12 -64 24 -139 102 -618 384 -1237 808 -1769 133 -167 475 -510
644 -646 695 -561 1526 -932 2500 -1118 947 -181 1854 -159 2775 69 1708 422
2975 1498 3440 2920 94 285 165 648 168 855 1 80 -2 101 -20 136 -29 54 -101
117 -151 132 -30 9 -1227 12 -5050 12 l-5011 0 -1818 836 c-1000 460 -1885
864 -1968 896 -184 74 -495 178 -630 212 -205 52 -380 67 -495 45z m340 -431
c123 -26 360 -103 580 -188 96 -37 713 -315 1370 -618 1370 -631 1312 -603
1306 -609 -6 -6 -358 57 -656 118 -1310 268 -2199 608 -2575 984 -81 81 -225
295 -225 334 0 15 57 9 200 -21z m14375 -2010 c-101 -633 -339 -1169 -749
-1682 -111 -140 -436 -462 -586 -582 -806 -643 -1805 -1012 -2984 -1104 -167
-13 -624 -13 -797 0 -1653 126 -3017 807 -3795 1896 -291 408 -488 871 -583
1367 -12 59 -21 117 -21 128 0 19 48 19 4761 19 l4761 0 -7 -42z"/>
</g>
</svg>
